<?xml version="1.0" standalone="no"?><!DOCTYPE svg PUBLIC "-//W3C//DTD SVG 1.1//EN" "http://www.w3.org/Graphics/SVG/1.1/DTD/svg11.dtd"><svg t="1697186076754" class="icon" viewBox="0 0 1024 1024" version="1.1" xmlns="http://www.w3.org/2000/svg" p-id="37419" xmlns:xlink="http://www.w3.org/1999/xlink" width="200" height="200"><path d="M64 0h896a64 64 0 0 1 64 64v768a64 64 0 0 1-64 64h-64l-46.336 92.608a64 64 0 0 1-57.216 35.392H231.552a64 64 0 0 1-57.216-35.392L128 896H64a64 64 0 0 1-64-64V64a64 64 0 0 1 64-64z m128 128a64 64 0 0 0-64 64v384a64 64 0 0 0 64 64h640a64 64 0 0 0 64-64V192a64 64 0 0 0-64-64H192z m32 640a32 32 0 1 0 0 64 32 32 0 0 0 0-64z m128 0a32 32 0 1 0 0 64h320a32 32 0 1 0 0-64h-320z m448 0a32 32 0 1 0 0 64 32 32 0 0 0 0-64z m-512-512a32 32 0 1 1 0 64 32 32 0 0 1 0-64z m128 0h192a32 32 0 0 1 0 64h-192a32 32 0 0 1 0-64z m-128 192h448a32 32 0 1 1 0 64h-448a32 32 0 0 1 0-64z m448-192a32 32 0 1 1 0 64 32 32 0 0 1 0-64z" fill="#333333" p-id="37420"></path></svg>