<?xml version="1.0" standalone="no"?><!DOCTYPE svg PUBLIC "-//W3C//DTD SVG 1.1//EN" "http://www.w3.org/Graphics/SVG/1.1/DTD/svg11.dtd"><svg t="1697184744721" class="icon" viewBox="0 0 1024 1024" version="1.1" xmlns="http://www.w3.org/2000/svg" p-id="9691" xmlns:xlink="http://www.w3.org/1999/xlink" width="200" height="200"><path d="M864.6 99.6H163.2c-54.5 0-98.9 44.4-98.9 98.9v613.2c0 54.5 44.4 98.9 98.9 98.9h341v-70h-341c-15.9 0-28.9-13-28.9-28.9V198.5c0-15.9 13-28.9 28.9-28.9h701.4c15.9 0 28.9 13 28.9 28.9v246.9h70V198.5c0-54.5-44.4-98.9-98.9-98.9z" p-id="9692"></path><path d="M418.5 738.3v-109h115.9v-70H418.5v-78.6h115.9v-70h-74.6l96.3-96.3-49.5-49.5-123.4 123.4-123.4-123.4-49.5 49.5 96.3 96.3h-74.1v70h116v78.6h-116v70h116v109zM754.5 632.1L705 582.6 532.1 755.5 705 928.3l49.5-49.5-123.4-123.3z" p-id="9693"></path><path d="M955.8 632.1l-49.5-49.5L782.9 706l-49.5 49.5 49.5 49.5 123.4 123.3 49.5-49.5-123.4-123.3z" p-id="9694"></path></svg>